<svg width="35" height="35" viewBox="0 0 35 35" fill="none" xmlns="http://www.w3.org/2000/svg">
<g clip-path="url(#clip0_74_1522)">
<path d="M34.3669 28.1385C35.122 28.1385 35 30.9073 35 22.6989V5.46875C35 2.45328 32.5467 0 29.5312 0H5.46875C2.45328 0 0 2.45328 0 5.46875V29.5312C0 32.5467 2.45328 35 5.46875 35H29.5312C32.5467 35 35 32.5467 35 29.5312C35 28.7762 35.9088 28.1385 34.3669 28.1385C32.2656 21.725 32.2656 21.9381 32.2656 29.5312C32.2656 31.039 31.039 32.2656 29.5312 32.2656H5.46875C3.96102 32.2656 2.73438 31.039 2.73438 29.5312V5.46875C2.73438 3.96102 3.96102 2.73438 5.46875 2.73438H29.5312C31.039 2.73438 32.2656 3.96102 32.2656 5.46875V22.6989C32.2632 29.647 33.6118 28.1385 34.3669 28.1385Z" fill="#F4E5E4"/>
<path d="M29.5312 17.5C29.5312 16.7449 28.9192 16.1328 28.1641 16.1328H6.9043C6.1492 16.1328 5.53711 16.7449 5.53711 17.5C5.53711 18.2551 6.1492 18.8672 6.9043 18.8672H28.1641C28.9192 18.8672 29.5312 18.2551 29.5312 17.5Z" fill="#F4E5E4"/>
<path d="M6.9043 21.6016C6.1492 21.6016 5.53711 22.2137 5.53711 22.9688C5.53711 23.7238 6.1492 24.3359 6.9043 24.3359H19.6875C20.4426 24.3359 21.0547 23.7238 21.0547 22.9688C21.0547 22.2137 20.4426 21.6016 19.6875 21.6016H6.9043Z" fill="#F4E5E4"/>
<path d="M6.9043 13.3984H22.4219C23.177 13.3984 23.7891 12.7863 23.7891 12.0312C23.7891 11.2762 23.177 10.6641 22.4219 10.6641H6.9043C6.1492 10.6641 5.53711 11.2762 5.53711 12.0312C5.53711 12.7863 6.1492 13.3984 6.9043 13.3984Z" fill="#F4E5E4"/>
</g>
<defs>
<clipPath id="clip0_74_1522">
<rect width="35" height="35" fill="#F4E5E4"/>
</clipPath>
</defs>
</svg>
