<svg width="49" height="47" viewBox="0 0 49 47" fill="none" xmlns="http://www.w3.org/2000/svg">
<path d="M10.8623 2.81475C6.89065 3.52297 3.34963 6.19949 1.48342 9.88774C0.0287357 12.7482 -0.363647 16.1881 0.401978 19.3521C0.583814 20.1155 1.04319 21.4308 1.25374 21.8171C1.33987 21.9735 1.55999 21.9826 6.67053 21.9643L11.9916 21.9367L13.877 16.51C14.9106 13.53 15.7815 11.1294 15.8102 11.1754C15.8389 11.2306 17.1692 14.3946 18.7578 18.2116C20.3465 22.0286 21.6864 25.2202 21.7246 25.2938C21.7821 25.3858 22.0692 24.8983 22.6912 23.7026L23.5908 21.9826H35.6207C47.2391 21.9826 47.6602 21.9735 47.7463 21.8079C47.9569 21.4308 48.4162 20.1155 48.5981 19.3521C49.7082 14.7349 48.3875 9.88774 45.1049 6.5398C41.7266 3.08148 36.7596 1.79381 32.2998 3.22865C29.4479 4.14841 26.6916 6.42023 24.9307 9.30829C24.7297 9.6578 24.5287 9.93373 24.5 9.93373C24.4713 9.93373 24.2703 9.6578 24.0694 9.30829C23.476 8.34254 22.3371 6.9261 21.5428 6.1627C19.8489 4.54391 18.0688 3.54137 15.8867 2.97111C15.1115 2.76876 14.7383 2.73197 13.3028 2.70438C12.1065 2.68599 11.4078 2.71358 10.8623 2.81475Z" fill="#534141"/>
<path d="M15.9633 19.1865C15.9346 19.2325 15.4943 20.4834 14.9871 21.955L14.0492 24.6499H8.50801C5.46465 24.6499 2.9668 24.6775 2.9668 24.7051C2.9668 24.8155 4.03867 26.2503 4.71816 27.0413C6.3834 29.0188 8.88125 31.4286 12.1543 34.2247C13.0922 35.0341 23.7344 43.8454 24.2225 44.2225L24.5 44.4341L24.7775 44.2225C25.2656 43.8454 35.9078 35.0341 36.8457 34.2247C40.1188 31.4286 42.6166 29.0188 44.2818 27.0413C44.9613 26.2503 46.0332 24.8155 46.0332 24.7051C46.0332 24.6775 41.3916 24.6591 35.726 24.6683L25.4092 24.6959L23.4473 28.4486L21.4758 32.2012L18.8152 25.7812C17.3414 22.2493 16.1164 19.3061 16.0781 19.2325C16.0398 19.1681 15.992 19.1405 15.9633 19.1865Z" fill="#534141"/>
</svg>
