<svg width="60" height="50" viewBox="0 0 60 50" fill="none" xmlns="http://www.w3.org/2000/svg">
<path fill-rule="evenodd" clip-rule="evenodd" d="M38.5996 15.7744C37.6827 15.7744 36.8517 15.2369 36.4609 14.3969C35.7553 12.8769 34.858 10.9344 34.327 9.87687C33.5428 8.30437 32.2719 7.38937 30.5117 7.37687C30.4822 7.37438 18.9969 7.37438 18.9674 7.37687C17.2073 7.38937 15.9388 8.30437 15.1521 9.87687C14.6235 10.9344 13.7263 12.8769 13.0207 14.3969C12.6298 15.2369 11.7965 15.7744 10.882 15.7744C5.97513 15.7744 2 19.8169 2 24.8044V39.6444C2 44.6294 5.97513 48.6744 10.882 48.6744H38.5996C43.504 48.6744 47.4791 44.6294 47.4791 39.6444V24.8044C47.4791 19.8169 43.504 15.7744 38.5996 15.7744Z" stroke="#845858" stroke-width="2.5" stroke-linecap="round" stroke-linejoin="round"/>
<path fill-rule="evenodd" clip-rule="evenodd" d="M16.9258 31.3359C16.9233 35.7184 20.4412 39.3034 24.7433 39.3009C29.038 39.2959 32.5461 35.7259 32.5534 31.3534C32.5608 26.9634 29.0552 23.3859 24.7482 23.3809C20.4166 23.3759 16.8914 27.0134 16.9258 31.3359Z" stroke="#845858" stroke-width="2.5" stroke-linecap="round" stroke-linejoin="round"/>
<path d="M37.8646 28.2509C37.6231 28.2262 37.3846 28.1632 37.1173 28.0554C36.8201 27.9234 36.5628 27.7554 36.3141 27.5029C35.8671 27.0274 35.6083 26.4057 35.6083 25.7644C35.6083 25.4237 35.6781 25.0861 35.8141 24.7802C35.9503 24.4703 36.1118 24.2089 36.4038 23.9246C36.6258 23.7312 36.8533 23.5755 37.1643 23.4385C38.0866 23.0731 39.1836 23.2914 39.8691 23.9767C40.0746 24.1792 40.2476 24.4235 40.3436 24.6295L40.4006 24.7755C40.5386 25.0861 40.6083 25.4237 40.6083 25.7644C40.6083 26.4187 40.3528 27.0239 39.8786 27.5277C39.4688 27.9402 38.9306 28.1939 38.3563 28.2509L38.1083 28.2632L37.8646 28.2509Z" fill="#845858"/>
<circle cx="47.5" cy="12.5" r="12.5" fill="#845858"/>
<path d="M47.5 23C48.9343 23 50.2846 22.7255 51.5507 22.1765C52.8169 21.6275 53.9338 20.8709 54.9015 19.9067C55.8691 18.9424 56.6274 17.8255 57.1765 16.5559C57.7255 15.2863 58 13.9344 58 12.5C58 11.0657 57.7255 9.71549 57.1765 8.44931C56.6274 7.18313 55.8691 6.06622 54.9015 5.09857C53.9338 4.13093 52.8152 3.37259 51.5456 2.82357C50.276 2.27455 48.924 2.00004 47.4897 2.00004C46.0554 2.00004 44.7051 2.27455 43.439 2.82357C42.1728 3.37259 41.0576 4.13093 40.0934 5.09857C39.1292 6.06622 38.3725 7.18313 37.8235 8.44931C37.2745 9.71549 37 11.0657 37 12.5C37 13.9344 37.2745 15.2863 37.8235 16.5559C38.3725 17.8255 39.1309 18.9424 40.0985 19.9067C41.0662 20.8709 42.1831 21.6275 43.4493 22.1765C44.7154 22.7255 46.0657 23 47.5 23ZM47.4794 17.6265C47.1912 17.6265 46.9699 17.5322 46.8154 17.3434C46.661 17.1547 46.5838 16.9094 46.5838 16.6074V13.4059H43.2073C42.9054 13.4059 42.6583 13.3305 42.4662 13.1795C42.274 13.0285 42.1779 12.8089 42.1779 12.5207C42.1779 12.2256 42.2706 11.9991 42.4559 11.8412C42.6412 11.6834 42.8917 11.6045 43.2073 11.6045H46.5838V8.19712C46.5838 7.89515 46.661 7.64982 46.8154 7.46109C46.9698 7.27236 47.1912 7.178 47.4794 7.178C47.7676 7.178 47.9924 7.27065 48.1537 7.45594C48.3149 7.64124 48.3956 7.88829 48.3956 8.19712V11.6045H51.7824C52.098 11.6045 52.3468 11.6834 52.5287 11.8412C52.7105 11.9991 52.8015 12.2256 52.8015 12.5207C52.8015 12.8089 52.7071 13.0285 52.5184 13.1795C52.3297 13.3305 52.0843 13.4059 51.7824 13.4059H48.3956V16.6074C48.3956 16.9162 48.315 17.1633 48.1537 17.3486C47.9924 17.5339 47.7676 17.6265 47.4794 17.6265Z" fill="#F4E5E4"/>
</svg>
