<svg width="20" height="16" viewBox="0 0 20 16" fill="none" xmlns="http://www.w3.org/2000/svg">
<path d="M10 3.00001C13.1584 3.00001 15.975 4.77501 17.35 7.58334C16.8584 8.60001 16.1667 9.47501 15.3417 10.1833L16.5167 11.3583C17.675 10.3333 18.5917 9.05 19.1667 7.58334C17.725 3.92501 14.1667 1.33334 10 1.33334C8.94171 1.33334 7.92504 1.50001 6.96671 1.80834L8.34171 3.18334C8.88337 3.075 9.43337 3.00001 10 3.00001ZM9.10837 3.95L10.8334 5.675C11.3084 5.88334 11.6917 6.26667 11.9 6.74167L13.625 8.46667C13.6917 8.18334 13.7417 7.88334 13.7417 7.57501C13.75 5.50834 12.0667 3.83334 10 3.83334C9.69171 3.83334 9.40004 3.875 9.10837 3.95ZM1.67504 1.225L3.90837 3.45834C2.55004 4.52501 1.47504 5.94167 0.833374 7.58334C2.27504 11.2417 5.83337 13.8333 10 13.8333C11.2667 13.8333 12.4834 13.5917 13.6 13.15L16.45 16L17.625 14.825L2.85004 0.0416718L1.67504 1.225ZM7.92504 7.47501L10.1 9.65C10.0667 9.65834 10.0334 9.66667 10 9.66667C8.85004 9.66667 7.91671 8.73334 7.91671 7.58334C7.91671 7.54167 7.92504 7.51667 7.92504 7.47501ZM5.09171 4.64167L6.55004 6.10001C6.35837 6.55834 6.25004 7.05834 6.25004 7.58334C6.25004 9.65001 7.93337 11.3333 10 11.3333C10.525 11.3333 11.025 11.225 11.475 11.0333L12.2917 11.85C11.5584 12.05 10.7917 12.1667 10 12.1667C6.84171 12.1667 4.02504 10.3917 2.65004 7.58334C3.23337 6.39167 4.08337 5.40834 5.09171 4.64167Z" fill="#BBB9CE"/>
</svg>
