<svg width="186" height="195" viewBox="0 0 186 195" fill="none" xmlns="http://www.w3.org/2000/svg">
<path fill-rule="evenodd" clip-rule="evenodd" d="M16.3914 0.722952C16.1366 0.977481 15.8116 1.46477 15.6691 1.80562C15.2838 2.72709 15.0297 7.08562 15.0278 12.802C15.0252 20.6306 15.3131 22.6124 16.9172 25.8051C18.0678 28.0953 18.6739 28.9249 21.2955 31.7995C23.3472 34.0491 23.8627 34.7376 24.5403 36.1338C25.3752 37.8537 25.913 39.5827 25.9152 40.553L25.9163 41.1137L26.2951 40.5604C27.4456 38.8805 28.1284 36.5481 28.1284 34.2983C28.1284 31.7325 27.8232 30.3778 26.8095 28.443C22.2239 19.6916 21.2874 16.3189 20.6494 6.26061C20.3818 2.04078 19.4646 0.262588 17.555 0.260744C17.0525 0.260191 16.7236 0.390957 16.3914 0.722952ZM28.9515 14.2814C28.0577 14.554 26.9274 15.6479 26.4902 16.6633C26.271 17.1727 26.0054 18.2346 25.9 19.0229C25.7236 20.3422 25.7528 20.6542 26.2671 22.943C26.622 24.5229 27.0392 25.8344 27.4111 26.5396C29.5435 30.5829 29.3988 30.1227 29.5356 33.2942C29.65 35.9463 29.6278 36.2683 29.2443 37.5302C28.7605 39.1225 28.3453 39.9813 27.4718 41.1962C25.8196 43.4949 25.7395 44.1578 25.9314 53.956C26.1239 63.793 26.5899 82.8897 26.8414 91.2469C27.0374 97.7614 27.0097 97.5924 28.1406 99.2127C29.2316 100.776 29.8838 104.165 29.7481 107.567C29.6551 109.906 29.4459 110.555 28.0714 112.769L27.4415 113.784L28.1531 138.96C28.5446 152.807 28.916 166.519 28.9788 169.43L29.0928 174.725L30.0787 175.813C31.204 177.056 32.2133 177.572 34.185 177.909C36.5071 178.307 39.2106 177.558 40.8225 176.069L41.7847 175.18L41.7836 173.255C41.783 172.196 41.6204 167.179 41.4222 162.107C41.2242 157.035 41.0159 151.599 40.9594 150.026C40.9029 148.454 40.7748 144.885 40.6746 142.095C40.5744 139.306 40.2851 131.628 40.0315 125.035C39.7779 118.441 39.3206 106.489 39.0154 98.475C38.3898 82.0529 38.0163 73.2552 37.6404 66.0828L37.3829 61.1725L36.6324 59.0031C35.4384 55.5514 35.2472 54.1665 35.2444 48.9525C35.2422 44.8326 35.2797 44.2871 35.6676 42.7737C36.0505 41.2794 36.0813 40.8563 35.976 38.5316C35.9115 37.1114 35.7781 35.0779 35.6792 34.0128C35.5803 32.9476 35.4214 29.6692 35.326 26.7273C35.0996 19.7451 34.7491 17.7201 33.4654 15.9755C32.5324 14.7073 30.3009 13.8699 28.9515 14.2814ZM56.935 17.2731C56.1549 17.6816 55.8408 18.3614 54.9964 21.4708C54.5416 23.1446 53.9526 25.0535 53.6872 25.7129C53.3308 26.5988 53.2081 27.2248 53.2174 28.1106C53.2347 29.7503 53.4318 30.4636 54.2731 31.9278C54.6695 32.618 55.1047 33.4524 55.24 33.7822C55.375 34.112 55.5919 34.3816 55.7214 34.3816C56.0387 34.3816 57.8642 31.418 58.5741 29.7505C58.8882 29.0127 59.2388 27.7818 59.3531 27.0149C59.6502 25.0198 59.653 19.5181 59.3571 18.6851C58.9216 17.459 57.8136 16.8129 56.935 17.2731ZM46.5243 26.2703C42.8779 27.8476 40.1125 30.7439 39.2846 33.8525C38.7762 35.7616 39.0121 43.3672 39.7672 49.4136C40.6532 56.5078 43.1881 63.4496 46.2761 67.2384C46.7231 67.7867 47.1512 68.5239 47.2276 68.8766C47.4922 70.1002 48.4174 72.1694 49.5888 74.1582C50.2366 75.2579 51.0421 76.6465 51.3789 77.2439C52.2867 78.8543 52.9754 79.5698 53.6185 79.5698C55.1645 79.5698 54.5573 76.7091 52.181 72.7963C50.8871 70.6662 50.0891 69.1772 50.0891 68.893C50.0891 68.7962 50.359 68.6588 50.6889 68.5874C51.4826 68.4159 52.8512 67.7176 53.5573 67.1238L54.1253 66.6461L55.2486 68.9933C57.8407 74.4091 59.7441 76.9876 61.15 76.9876C61.3659 76.9876 61.5883 76.8681 61.6444 76.7222C61.7988 76.3201 58.4121 69.597 56.9468 67.3966L55.657 65.46L56.5179 64.7254C56.9913 64.3214 57.843 63.5536 58.4102 63.0193C58.9777 62.4849 59.493 62.0478 59.5553 62.0478C59.6175 62.0478 60.2033 63.1477 60.8569 64.4917C63.2008 69.312 66.026 72.7454 67.6485 72.7454C68.5109 72.7454 68.3326 72.3083 66.5202 69.9788C66.0072 69.3194 64.7888 67.203 63.8124 65.2756C62.8362 63.3481 61.8404 61.5071 61.5995 61.1841C61.3589 60.8611 61.1618 60.5391 61.1618 60.4686C61.1618 60.2967 62.5029 58.8201 62.6588 58.8201C62.7264 58.8201 63.1984 59.4426 63.7079 60.2034C65.4124 62.7487 68.3658 65.4495 70.7767 66.6675C73.0608 67.8216 75.1871 68.2259 75.1871 67.5064C75.1871 67.174 74.4822 66.5785 73.5262 66.1031C73.0695 65.8761 71.9899 65.2361 71.1272 64.6809C69.2358 63.4638 65.4356 59.6936 64.4945 58.1006C63.9013 57.0967 63.877 56.9938 64.1254 56.5397C64.2773 56.2619 64.8586 55.8202 65.482 55.509L66.5724 54.9644L69.8592 54.9944C73.2657 55.0256 74.3595 55.194 78.5028 56.3259C79.2606 56.533 81.046 56.8706 82.4705 57.0762C83.8948 57.2821 85.1848 57.487 85.3371 57.532C85.4893 57.577 86.735 57.7411 88.1052 57.897C89.4754 58.0527 91.2194 58.2967 91.9806 58.4392C92.7419 58.5816 94.4858 58.7528 95.8561 58.8195C98.3051 58.9389 99.1939 58.873 103.422 58.2589C107.999 57.5943 119.183 57.6393 126.583 58.3522C135.246 59.1866 135.885 59.1919 139.37 58.4592C141.063 58.1034 146.679 57.714 149.436 57.7612C151.937 57.8042 152.487 57.6273 153.105 56.5808C153.525 55.8681 153.47 55.8683 155.187 56.571C156.235 57 156.554 57.0305 161.118 57.136C165.186 57.23 165.976 57.2059 166.162 56.9822C167.135 55.8106 164.109 54.7231 159.431 54.563C157.873 54.5095 156.042 54.331 155.241 54.1541L153.818 53.8402L153.927 52.7335C153.987 52.1249 154.09 51.2949 154.156 50.8891L154.276 50.1514H157.13C159.603 50.1514 160.269 50.0837 162.107 49.6456C163.275 49.3675 164.533 49.0956 164.904 49.0412C165.735 48.9195 165.954 48.4729 165.437 47.9565C164.954 47.4735 163.056 47.346 160.834 47.6472C159.013 47.894 154.857 48.1996 154.739 48.0956C154.572 47.948 155.27 44.6456 155.498 44.5047C155.63 44.4232 156.468 44.1015 157.361 43.79C159.215 43.1428 165.036 40.6995 165.383 40.4228C165.786 40.1015 165.65 39.5622 165.135 39.4329C163.827 39.1048 160.977 39.8601 157.724 41.3965C155.666 42.3689 155.642 42.3628 156.027 40.9754C156.133 40.5951 156.301 40.2838 156.402 40.2838C156.901 40.2838 162.266 38.18 164.055 37.2829C166.305 36.1537 166.716 35.8148 166.415 35.3345C165.933 34.5653 163.322 35.0595 159.219 36.6962C156.929 37.6097 156.689 37.6597 156.825 37.1944C156.877 37.0169 157.007 36.3808 157.114 35.781C157.22 35.1812 157.331 34.6672 157.36 34.6387C157.431 34.567 160.639 33.2444 163.346 32.17C164.585 31.6783 166.61 30.9798 167.845 30.6179C169.081 30.2561 170.212 29.8595 170.36 29.7367C170.806 29.3674 170.123 29.0328 168.924 29.0328C166.219 29.0328 162.143 30.1834 158.808 31.8885C156.999 32.8133 156.772 32.8849 156.192 32.7167C155.842 32.6152 155.307 32.5837 155.002 32.6466C153.229 33.0127 149.543 34.2263 147.064 35.2607C145.749 35.809 142.911 36.4074 139.838 36.784C137.859 37.0265 133.837 36.791 130.274 36.2244C123.588 35.1609 117.769 35.1924 109.789 36.3354C106.461 36.812 100.721 38.2874 95.8976 39.9057C94.403 40.4072 92.1836 41.023 90.9656 41.2742C88.958 41.6883 88.3285 41.7307 84.2298 41.7281C80.4922 41.7259 79.4525 41.6662 78.2321 41.384C74.5768 40.5388 70.8422 38.508 64.6681 34.008C60.9086 31.2677 60.318 30.9212 59.7683 31.132C59.4699 31.2465 58.0214 34.1946 57.6424 35.4593C57.4471 36.1106 57.4737 36.291 57.9024 37.227C58.165 37.8004 58.8445 38.982 59.4123 39.8525C59.9802 40.7233 61.4681 43.4799 62.719 45.9784C63.9696 48.477 65.2568 50.9684 65.5794 51.5153C65.902 52.062 66.0987 52.5692 66.0168 52.6424C65.9348 52.7155 65.5997 52.8649 65.2719 52.9741C64.6786 53.1718 64.6757 53.1696 64.4736 52.3997C64.1508 51.1691 61.4301 45.898 60.1756 44.0727C57.5704 40.2828 54.9452 35.7993 52.6923 31.2923C51.4031 28.7132 51.3872 28.664 51.841 28.664C52.2568 28.664 52.3037 28.59 52.3037 27.9356C52.3037 27.3295 52.2029 27.1313 51.7039 26.7548C50.1266 25.5652 48.505 25.4136 46.5243 26.2703ZM48.6929 29.7188C49.055 30.4005 49.4923 31.3341 49.6649 31.7937C49.8372 32.2534 50.3885 33.3764 50.8895 34.2894C51.3907 35.2024 52.259 36.8209 52.8189 37.886C54.0352 40.1995 56.1946 43.8171 57.6944 46.0538C58.2918 46.9449 59.3787 48.8878 60.1097 50.3714C62.0703 54.3511 62.0249 54.6062 58.7101 58.2422C56.2727 60.9159 51.1069 65.2224 49.9563 65.5399C49.0223 65.7977 48.7139 65.5572 47.6268 63.724C45.1277 59.5096 43.2854 53.316 42.0537 44.987C41.6348 42.1547 41.578 41.2879 41.6662 39.0849C41.8319 34.9482 42.2844 33.4157 43.8431 31.7113C44.7062 30.7673 47.5637 28.4795 47.8796 28.4795C47.9647 28.4795 48.3308 29.0373 48.6929 29.7188ZM37.3067 44.3192C37.1338 44.8647 36.8568 46.2342 36.6913 47.3624C36.4357 49.1036 36.4226 49.7384 36.6053 51.5622C36.9557 55.0617 37.697 57.6212 38.3603 57.6212C38.4835 57.6212 38.7685 57.2269 38.9936 56.7451L39.4029 55.869L39.0449 54.3013C38.5262 52.0295 37.9277 47.8951 37.7635 45.4481L37.6212 43.327L37.3067 44.3192ZM9.0281 68.7801C8.9266 68.8129 8.61676 68.8899 8.33939 68.9509C7.51964 69.1315 6.56333 70.0969 6.43969 70.8689C6.3799 71.2417 6.13131 72.584 5.88735 73.8521C5.23775 77.2286 5.07406 79.9999 5.24975 84.6419C5.45718 90.119 6.29833 96.0068 7.2814 98.8623C7.77708 100.303 9.44832 104.011 10.016 104.93C10.6294 105.924 11.9288 107.508 12.5677 108.041C13.9176 109.167 15.7715 109.521 19.3578 109.337C21.8303 109.21 24.6215 109.57 26.0757 110.204C26.5201 110.397 27.0018 110.556 27.1463 110.556C27.7831 110.556 28.3565 107.603 28.2028 105.115C28.1028 103.494 27.6479 101.624 27.2797 101.319C27.1503 101.211 26.1879 100.998 25.1412 100.844C22.2732 100.422 19.5216 99.0274 16.9814 96.7071C15.2984 95.1698 14.9431 94.2885 13.9021 89.0685C13.123 85.1616 12.5647 80.8376 12.2707 76.4342C11.9341 71.3905 11.1696 69.2243 9.58174 68.8155C9.37874 68.7633 9.1296 68.7475 9.0281 68.7801ZM67.7223 138.944C67.9984 139.209 71.3774 140.195 73.744 140.701C83.6723 142.822 93.4053 146.494 98.901 150.191C101.262 151.779 101.946 152.012 101.946 151.226C101.946 150.622 100.961 149.547 99.1793 148.205C94.9701 145.035 84.6378 141.193 76.1099 139.628C72.3786 138.942 67.289 138.528 67.7223 138.944ZM52.9682 141.802C51.8859 142.258 51.4221 142.567 51.5808 142.726C51.6266 142.771 52.7837 142.897 54.1523 143.006C55.5206 143.114 57.6785 143.287 58.9473 143.39C62.2366 143.657 65.3347 144.207 69.4663 145.258C73.4389 146.269 79.6715 148.156 81.3232 148.848C82.969 149.538 84.3951 149.865 84.8043 149.646C85.256 149.405 85.2503 148.696 84.793 148.283C84.0214 147.585 74.143 144.192 69.5585 143.05C64.529 141.797 62.4781 141.507 58.0245 141.42C54.1272 141.345 54.0375 141.351 52.9682 141.802ZM82.057 153.408C81.8261 153.536 81.3694 154.046 81.042 154.541C80.5897 155.225 80.0698 155.665 78.878 156.374C76.1163 158.016 74.7367 159.679 74.1229 162.107C73.9538 162.776 72.6995 165.611 70.7485 169.733C69.913 171.498 69.8309 172.427 70.2954 174.864C70.6564 176.757 71.4001 178.23 72.8571 179.936C74.9906 182.435 77.0505 183.957 80.8157 185.814C83.5898 187.182 90.5947 188.744 91.6999 188.241C91.9635 188.121 92.1652 187.875 92.1652 187.673C92.1652 187.374 92.3813 187.281 93.5031 187.093C96.4937 186.594 98.4347 185.694 99.3866 184.365C99.6536 183.992 100.104 183.032 100.388 182.233C100.705 181.339 101.194 180.426 101.656 179.866C103.646 177.449 103.788 177.127 103.792 175.018C103.794 174.024 103.904 173.494 104.268 172.713C105.448 170.179 105.452 168.146 104.28 166.03C103.928 165.394 103.374 164.003 103.048 162.939C102.323 160.568 101.72 159.623 100.136 158.375C98.7672 157.295 95.3705 155.546 92.9034 154.65C92.4265 154.477 91.9974 154.179 91.8956 153.951C91.6832 153.474 91.3879 153.384 89.5816 153.245C88.4234 153.156 87.9616 153.213 86.7527 153.596L85.3077 154.053L84.6507 153.607C83.9172 153.11 82.7551 153.02 82.057 153.408ZM121.784 153.913C119.45 153.989 116.26 154.186 114.695 154.351C107.708 155.085 106.281 155.214 103.28 155.377C100.168 155.547 99.3594 155.71 99.3652 156.165C99.3707 156.601 99.6549 156.827 100.671 157.207C101.846 157.647 103.107 158.648 103.553 159.497C103.825 160.016 104.661 162.557 105.638 165.838C106.37 168.295 106.472 171.799 105.887 174.365C105.73 175.054 103.564 179.305 102.627 180.765C102.181 181.459 101.461 182.715 101.026 183.557C100.394 184.78 100.027 185.247 99.1991 185.882C97.6799 187.049 96.8954 187.385 94.8411 187.751C93.1813 188.047 92.9307 188.145 92.3497 188.727C91.7479 189.331 91.6088 189.381 90.3151 189.457C88.3272 189.575 86.8236 189.146 82.4766 187.221C81.6646 186.861 79.8792 186.241 78.5089 185.842C77.1387 185.443 75.7509 185.002 75.4252 184.863C75.0993 184.723 74.0398 183.834 73.0708 182.888C71.6129 181.463 71.1942 180.922 70.6464 179.752C69.5877 177.492 69.2673 176.414 69.1537 174.729C69.0599 173.342 69.1188 172.871 69.6333 170.878C69.9557 169.63 70.5831 167.809 71.0275 166.833C71.4719 165.857 72.0634 164.311 72.3416 163.398C73.0929 160.935 74.381 158.018 75.2964 156.707L76.1051 155.549L75.6 155.349C74.4043 154.878 66.5363 155.529 64.2289 156.29C63.9008 156.398 62.4327 156.703 60.9667 156.968C58.5503 157.404 57.6211 157.465 51.02 157.618C47.0152 157.711 43.7061 157.82 43.6666 157.859C43.627 157.899 43.5646 161.887 43.5279 166.722L43.4611 175.512L43.0038 176.292C42.2973 177.497 41.4484 178.235 39.9392 178.957C38.5939 179.6 38.4841 179.621 36.0197 179.688C33.8113 179.748 33.3353 179.706 32.3288 179.367C30.22 178.656 27.4867 176.672 26.9741 175.479C26.8405 175.168 26.7919 172.394 26.8248 166.949C26.8517 162.511 26.8032 158.882 26.7168 158.884C26.6305 158.887 26.1973 158.972 25.7543 159.074C25.3112 159.176 23.713 159.425 22.2027 159.626C20.6926 159.827 18.5035 160.198 17.3385 160.45C16.1735 160.702 14.3441 161.03 13.273 161.181C10.0366 161.635 6.15365 162.786 3.49732 164.078C1.77294 164.917 1.39758 165.237 0.757211 166.413C0.0649869 167.684 -0.138753 168.784 0.0893432 170.017C0.50955 172.288 1.30604 173.365 3.21497 174.242C4.50844 174.837 4.47097 174.834 9.12038 174.73C11.7656 174.671 12.0574 174.746 15.353 176.315C18.175 177.659 20.1127 178.958 22.4817 181.093C24.8463 183.224 26.0927 184.06 28.267 184.975C31.7015 186.421 34.7176 186.899 41.3233 187.045C44.6479 187.119 46.7225 187.081 48.0787 186.92C50.6753 186.612 53.6324 186.596 57.0095 186.872C58.532 186.997 59.9853 187.133 60.2391 187.175C60.4928 187.217 61.1142 187.308 61.6198 187.377C63.7321 187.667 69.6973 189.776 73.5382 191.59C76.098 192.799 78.2074 193.558 80.4466 194.075C86.3055 195.428 91.0463 195.304 96.7463 193.649C99.541 192.837 100.398 192.46 103.161 190.826C105.556 189.41 109.238 187.646 113.849 185.705C115.473 185.022 117.964 183.925 119.385 183.268C120.806 182.611 122.467 181.886 123.076 181.656C125.064 180.904 132.185 179.756 140.147 178.902C140.705 178.842 144.23 178.67 147.981 178.52C159.5 178.059 165.858 177.543 168.659 176.843C170.848 176.295 178.269 173.787 179.744 173.096C183.445 171.363 185.169 169.558 185.825 166.73C186.363 164.414 185.715 163.126 183.112 161.333C182.369 160.821 181.223 160.132 180.565 159.801C178.982 159.006 175.022 157.716 172.719 157.246C164.395 155.547 158.721 154.649 153.915 154.271C147.352 153.755 131.881 153.582 121.784 153.913ZM89.0619 155.697C89.1329 156.312 89.5972 156.558 91.4074 156.939C93.3295 157.343 96.0949 158.603 96.9323 159.457C97.4448 159.98 99.41 161.093 99.8199 161.093C100.271 161.093 100.513 161.582 100.261 161.985C99.8898 162.579 100.81 164.506 102.049 165.729C103.018 166.685 103.328 167.364 102.796 167.364C102.374 167.364 102.316 167.828 102.5 169.718C102.776 172.56 102.708 172.624 101.852 170.315C101.57 169.554 101.283 168.849 101.214 168.747C101.145 168.646 100.982 168.189 100.852 167.733C100.723 167.276 100.418 166.464 100.174 165.929C99.9308 165.393 99.7315 164.888 99.7315 164.805C99.7315 164.581 97.8879 161.994 97.3437 161.454C96.6003 160.716 94.4823 159.016 93.7035 158.531C93.3141 158.289 92.6299 158.048 92.1827 157.997C91.3966 157.906 91.3739 157.917 91.4951 158.345C91.9526 159.959 91.7946 160.255 91.0863 159.11C90.851 158.73 90.3124 158.169 89.8894 157.865L89.1202 157.312L86.6289 157.341C84.3815 157.367 83.9943 157.422 82.6752 157.904C81.0905 158.482 80.6821 158.846 81.0796 159.325C81.2704 159.555 81.7038 159.617 83.1067 159.617C85.1885 159.617 88.9493 160.072 90.1169 160.465C90.5635 160.615 91.1448 160.888 91.4087 161.072C91.6724 161.255 92.4044 161.677 93.0351 162.009C93.6657 162.341 94.3238 162.831 94.4973 163.098C94.6709 163.364 95.2074 163.987 95.6898 164.481C96.6503 165.465 97.4994 166.89 97.2651 167.123C97.1833 167.205 96.9279 167.053 96.6976 166.785C96.1131 166.106 95.5021 165.799 95.2458 166.056C94.9095 166.392 94.7717 166.289 94.574 165.556C94.326 164.635 93.5984 163.705 92.3497 162.712C90.8296 161.504 90.1944 161.191 88.1849 160.663C85.7314 160.019 84.6037 159.914 82.8457 160.17C82.0337 160.288 80.8683 160.448 80.2562 160.526C78.905 160.698 78.3631 160.967 78.1297 161.581C77.8953 162.197 78.0402 162.384 78.7505 162.384C79.0746 162.384 79.9209 162.516 80.6312 162.677C83.6488 163.362 85.0171 163.52 86.1824 163.317C86.7999 163.21 87.4643 163.124 87.659 163.126C87.979 163.129 87.9712 163.162 87.5783 163.464C86.9649 163.935 87.1345 164.402 88.1052 164.913C88.562 165.153 89.2453 165.554 89.6238 165.804C90.0021 166.053 90.3908 166.257 90.4871 166.257C90.5836 166.257 90.7722 166.363 90.9064 166.492C91.0404 166.621 91.6069 167.011 92.1652 167.359C94.6855 168.931 95.2568 169.527 93.0879 168.321C92.0222 167.729 90.7765 167.07 90.3197 166.857C89.0964 166.287 84.6769 164.668 83.3993 164.321C82.7903 164.156 82.0937 163.923 81.8514 163.803C81.5834 163.671 80.4992 163.585 79.0871 163.584C76.2416 163.582 76.0886 163.75 77.8106 164.982C78.8068 165.695 82.0256 167.546 83.4916 168.249C84.917 168.932 86.2954 169.285 87.9207 169.381C89.6522 169.484 89.6665 169.488 89.0741 169.76C87.7345 170.376 88.3475 170.925 92.5343 172.861C94.2265 173.643 97.0652 175.439 96.8888 175.615C96.8293 175.675 95.783 175.212 94.5637 174.587C93.3442 173.962 92.2667 173.45 92.1691 173.45C92.0714 173.45 91.5115 173.235 90.925 172.972C90.3384 172.709 89.4432 172.307 88.9357 172.079C88.4282 171.851 87.7223 171.555 87.367 171.42C87.0118 171.286 86.5966 171.085 86.4443 170.974C85.2387 170.093 84.4234 170.004 84.404 170.75C84.3946 171.114 84.3619 171.103 83.9888 170.61C83.0456 169.365 81.5884 168.141 80.2756 167.493C79.5163 167.117 78.8083 166.811 78.7021 166.811C78.5958 166.811 78.5089 166.742 78.5089 166.659C78.5089 166.464 76.473 165.519 76.0552 165.519C75.5913 165.519 75.6688 166.027 76.3217 167.265C77.0165 168.582 79.3313 171.137 80.3241 171.683C80.493 171.775 80.6727 171.905 80.7234 171.971C81.0542 172.402 84.4697 174.373 84.8851 174.373C85.0123 174.373 85.8095 174.699 86.6569 175.098C89.1488 176.27 90.6349 176.772 91.2526 176.648C91.5558 176.588 91.8485 176.466 91.9031 176.378C91.9578 176.289 92.1635 176.217 92.3606 176.217C92.6323 176.217 92.7188 176.345 92.7188 176.748C92.7188 177.66 93.0248 177.753 95.6276 177.634C97.6524 177.541 98.692 177.368 100.32 176.852C100.841 176.686 100.71 177.019 100.145 177.293C99.8669 177.429 98.9333 177.791 98.0706 178.098C96.63 178.61 96.3698 178.647 94.8837 178.545C93.9937 178.484 92.9141 178.357 92.4846 178.262C92.0552 178.167 90.9904 177.951 90.1184 177.782C89.2462 177.612 88.0628 177.246 87.4881 176.969C86.9134 176.691 86.4021 176.505 86.3515 176.556C86.3011 176.606 86.2598 176.959 86.2598 177.339C86.2598 178.741 85.8693 179.006 85.4013 177.923C84.1726 175.08 84.13 175.034 80.908 173.118C79.0692 172.024 76.2254 169.432 75.7242 168.392C75.3337 167.582 74.9328 167.532 75.0533 168.309C75.3462 170.196 76.4942 173.002 77.4402 174.142C77.5526 174.278 78.0976 174.378 78.7621 174.385C79.3842 174.393 80.0591 174.465 80.2621 174.545C80.5906 174.676 80.5577 174.723 79.9617 174.975C79.1301 175.326 79.0041 175.521 79.2585 176.065C79.685 176.976 82.391 178.681 85.1804 179.795C86.8499 180.462 89.3686 181.188 90.0429 181.196C90.9525 181.207 91.1888 181.484 90.4945 181.726C89.607 182.035 88.772 181.976 86.7211 181.459C85.7061 181.202 84.6926 180.947 84.469 180.891C84.1462 180.809 84.0379 180.885 83.9441 181.259C83.8792 181.517 83.8766 181.811 83.9386 181.911C84.1122 182.192 83.724 182.342 83.3464 182.14C83.0136 181.962 82.3358 180.764 82.1062 179.949C82.0402 179.715 81.5292 179.237 80.9412 178.862C79.8841 178.186 77.9608 176.34 76.9403 175.022C76.6358 174.629 76.2798 174.201 76.1493 174.07C76.0187 173.939 75.7843 173.56 75.6284 173.226C74.5372 170.894 74.1393 170.605 74.3375 172.291C74.4958 173.637 74.8531 174.857 75.6518 176.778C76.4743 178.757 76.9146 179.209 78.322 179.521C78.9323 179.657 79.4316 179.813 79.4316 179.868C79.4316 179.924 79.2864 180.13 79.1087 180.326C78.7968 180.67 78.823 180.717 79.8845 181.704C81.1143 182.848 83.0568 183.859 84.5778 184.145C85.8499 184.385 88.4106 184.383 89.9507 184.142C91.3015 183.93 92.9034 183.413 92.9034 183.189C92.9034 183.108 93.0078 183.041 93.1355 183.041C93.7399 183.041 97.486 180.613 98.035 179.865C98.2828 179.528 98.8088 179.413 98.8088 179.696C98.8088 179.922 97.8456 181.108 96.6553 182.349L95.6383 183.41L96.1406 184.006L96.6428 184.603L96.0188 184.742C95.6756 184.819 94.5633 184.831 93.5472 184.769C91.7083 184.657 89.7515 184.898 89.2608 185.295C89.0831 185.439 89.1139 185.595 89.3992 185.996C89.6009 186.279 89.7661 186.595 89.7661 186.698C89.7661 186.975 88.5535 186.6 87.6922 186.057C87.296 185.807 86.4172 185.476 85.7392 185.321C82.6468 184.613 80.6677 183.604 78.0476 181.396C77.4386 180.883 76.4214 180.04 75.7869 179.522C74.9638 178.85 74.6335 178.456 74.6335 178.146C74.6335 177.536 73.586 174.485 73.3496 174.406C73.2424 174.37 73.1882 174.286 73.2288 174.219C73.2693 174.151 73.3581 173.282 73.4258 172.287C73.496 171.26 73.8221 169.368 74.1804 167.909C74.6909 165.832 74.9945 165.013 75.7664 163.631C77.3288 160.835 79.2078 158.763 80.841 158.034C81.8222 157.597 82.4536 156.913 82.6689 156.056C82.7968 155.546 83.1225 155.366 83.1225 155.805C83.1225 156.332 83.9616 156.537 85.5526 156.398C87.1301 156.26 87.54 156.125 88.1746 155.535C88.6932 155.052 88.9936 155.107 89.0619 155.697Z" fill="#2B2D33"/>
</svg>
