<?xml version="1.0" standalone="no"?>
<!DOCTYPE svg PUBLIC "-//W3C//DTD SVG 20010904//EN"
 "http://www.w3.org/TR/2001/REC-SVG-20010904/DTD/svg10.dtd">
<svg version="1.0" xmlns="http://www.w3.org/2000/svg"
 width="512.000000pt" height="512.000000pt" viewBox="0 0 512.000000 512.000000"
 preserveAspectRatio="xMidYMid meet">

<g transform="translate(0.000000,512.000000) scale(0.100000,-0.100000)"
fill="#000000" stroke="none">
<path d="M1543 4949 c-17 -5 -96 -42 -175 -82 -260 -131 -460 -279 -663 -488
-363 -374 -591 -833 -677 -1362 -29 -177 -31 -535 -5 -707 45 -290 120 -527
251 -787 532 -1061 1779 -1599 2912 -1258 660 199 1189 633 1500 1230 71 135
78 173 41 218 -40 50 -69 50 -213 1 -143 -50 -273 -84 -409 -109 -120 -23
-477 -31 -616 -15 -316 36 -640 144 -903 300 -624 372 -1024 997 -1107 1730
-18 163 -7 454 25 620 32 170 76 325 128 449 61 146 65 164 45 206 -11 24 -29
41 -52 51 -39 16 -38 16 -82 3z"/>
<path d="M4324 4251 c-53 -32 -54 -104 -1 -132 13 -8 100 -14 229 -18 l208 -6
-35 -44 c-19 -24 -126 -144 -237 -268 -111 -123 -208 -233 -216 -244 -17 -24
-18 -79 -3 -108 27 -49 45 -51 423 -51 333 0 355 1 385 20 39 23 50 58 31 97
-22 45 -59 52 -310 52 -126 1 -228 3 -228 6 0 3 100 117 221 253 122 136 233
263 246 283 34 52 40 98 15 130 -35 44 -76 49 -398 49 -276 0 -301 -2 -330
-19z"/>
<path d="M2265 4188 c-11 -6 -25 -19 -32 -27 -17 -23 -16 -77 3 -95 8 -9 16
-17 17 -18 1 -1 103 -4 226 -7 l224 -6 -50 -60 c-27 -33 -135 -155 -239 -270
-104 -116 -197 -221 -207 -235 -21 -30 -22 -78 -1 -108 35 -51 47 -52 426 -52
329 0 355 1 384 19 50 31 52 93 4 136 -20 19 -40 20 -270 25 l-249 5 121 135
c66 74 176 197 244 273 137 153 157 192 130 246 -9 16 -29 34 -47 40 -45 16
-657 15 -684 -1z"/>
<path d="M3374 3506 c-39 -17 -52 -58 -29 -92 8 -13 16 -25 18 -25 1 -1 80 -4
176 -8 l173 -6 -196 -225 c-108 -124 -199 -235 -202 -247 -11 -41 4 -73 42
-89 29 -12 86 -14 314 -12 257 3 280 4 299 22 31 29 28 81 -6 103 -23 15 -56
19 -215 21 -103 2 -188 6 -188 8 0 3 84 98 186 212 103 114 193 222 201 240
17 41 10 67 -25 90 -23 15 -59 17 -272 20 -192 1 -252 -1 -276 -12z"/>
</g>
</svg>
