<svg width="48" height="48" viewBox="0 0 48 48" fill="none" xmlns="http://www.w3.org/2000/svg">
<rect width="48" height="48" fill="white" fill-opacity="0.1"/>
<path d="M23.728 24.5407C26.3956 24.5407 28.5581 22.405 28.5581 19.7704C28.5581 17.1358 26.3956 15 23.728 15C21.0604 15 18.8979 17.1358 18.8979 19.7704C18.8979 22.405 21.0604 24.5407 23.728 24.5407Z" fill="#747578"/>
<path d="M31.4476 29.3193V29.3193C31.452 29.2514 31.452 29.1833 31.4476 29.1154C31.4285 28.8645 31.3573 28.6194 31.238 28.394C30.7685 27.4765 29.4521 27.0609 28.3537 26.8256C27.5701 26.6625 26.7738 26.5576 25.9725 26.512L25.134 26.4492H24.7567H24.2872H23.1637H22.6941H22.3168L21.4784 26.512C20.677 26.5576 19.8808 26.6625 19.0972 26.8256C17.9988 27.0295 16.6824 27.453 16.2129 28.394C16.0936 28.6194 16.0224 28.8645 16.0033 29.1154C15.9989 29.1833 15.9989 29.2514 16.0033 29.3193V29.3193C15.9992 29.3872 15.9992 29.4553 16.0033 29.5232C16.0261 29.772 16.1001 30.0143 16.2213 30.2368C16.6908 31.1542 18.0072 31.5699 19.1056 31.8051C19.8907 31.9606 20.6863 32.0654 21.4868 32.1188L22.3252 32.1737H22.5265H22.7025H24.7651H24.9412H25.1424L25.9809 32.1188C26.7814 32.0654 27.577 31.9606 28.3621 31.8051C29.4605 31.5934 30.7769 31.1778 31.2464 30.2368C31.3619 30.0072 31.4329 29.7603 31.456 29.5075C31.4571 29.4447 31.4543 29.3818 31.4476 29.3193Z" fill="#747578"/>
</svg>
