<svg width="39" height="35" viewBox="0 0 39 35" fill="" xmlns="http://www.w3.org/2000/svg">
<path d="M6.05572 0.0479622C3.5649 0.362415 1.30259 1.9757 0.464704 4.03331C0.00767269 5.16808 0.0381414 4.09484 0.0381414 17.5001C0.0381414 30.9054 0.00767269 29.8321 0.464704 30.9669C1.11216 32.546 2.73463 34.0021 4.49419 34.5831C5.75865 34.9933 4.56275 34.9659 19.5001 34.9659C34.4374 34.9659 33.2415 34.9933 34.5059 34.5831C36.2655 34.0021 37.8879 32.546 38.5354 30.9669C38.9924 29.8321 38.962 30.9054 38.962 17.5001C38.962 4.09484 38.9924 5.16808 38.5354 4.03331C38.0098 2.74132 36.8063 1.49718 35.3971 0.793079C34.8791 0.533314 34.5364 0.410267 33.7061 0.184681L33.1729 0.0411263L19.7286 0.0274544C12.3323 0.0206184 6.18521 0.0342903 6.05572 0.0479622ZM33.0815 2.63195C34.5211 2.96691 35.6942 4.01964 36.0674 5.31163C36.2426 5.89952 36.2426 29.1007 36.0674 29.6886C35.6942 30.9806 34.5211 32.0333 33.0815 32.3683C32.4264 32.5255 6.57369 32.5255 5.91861 32.3683C4.47896 32.0333 3.30591 30.9806 2.93267 29.6886C2.75748 29.1007 2.75748 5.89952 2.93267 5.31163C3.2983 4.04015 4.47134 2.97374 5.88814 2.63195C6.50513 2.48839 32.4417 2.48156 33.0815 2.63195Z" fill="#F4E5E4"/>
<path d="M19.1192 10.0556C18.7231 10.165 18.4641 10.3564 18.2889 10.6846C18.1366 10.9717 18.1289 11.081 18.1289 13.624V16.2627L15.0973 16.2832L12.0657 16.3037L11.7534 16.4883C10.9764 16.9531 10.9764 18.0469 11.7534 18.5117L12.0657 18.6963L15.0897 18.7168L18.1213 18.7373L18.1442 21.458L18.167 24.1719L18.3727 24.4521C18.8907 25.1494 20.1094 25.1494 20.6274 24.4521L20.833 24.1719L20.8559 21.458L20.8787 18.7373L23.9104 18.7168L26.9344 18.6963L27.2467 18.5117C28.0237 18.0469 28.0237 16.9531 27.2467 16.4883L26.9344 16.3037L23.9104 16.2832L20.8787 16.2627L20.8559 13.542L20.833 10.8281L20.6274 10.5478C20.3151 10.124 19.6676 9.91209 19.1192 10.0556Z" fill="#F4E5E4"/>
</svg>
