<svg width="22" height="22" viewBox="0 0 22 22" fill="none" xmlns="http://www.w3.org/2000/svg">
    <path d="M9.97333 22H12.0267C12.8662 22 13.5237 21.4735 13.726 20.6636L14.1306 18.8919L14.3936 18.7906L15.9411 19.7524C16.6492 20.1979 17.4887 20.0764 18.0855 19.4791L19.5016 18.0617C20.1085 17.4542 20.2097 16.624 19.7646 15.9254L18.8037 14.3764L18.9048 14.1335L20.6749 13.7184C21.474 13.5159 22 12.8578 22 12.0175V10.023C22 9.1827 21.4841 8.52462 20.6749 8.32214L18.9149 7.89692L18.8138 7.63369L19.7747 6.0948C20.2198 5.39623 20.1186 4.56604 19.5117 3.94846L18.0956 2.53106C17.509 1.93373 16.6694 1.82237 15.9614 2.25771L14.4138 3.20939L14.1306 3.10815L13.726 1.32628C13.5237 0.516337 12.8662 0 12.0267 0H9.97333C9.12368 0 8.46621 0.516337 8.27402 1.32628L7.86943 3.10815L7.58621 3.20939L6.03862 2.25771C5.32046 1.82237 4.49103 1.93373 3.90437 2.53106L2.47816 3.94846C1.88138 4.56604 1.77011 5.39623 2.21517 6.0948L3.17609 7.63369L3.07494 7.89692L1.32506 8.32214C0.515862 8.52462 0 9.1827 0 10.023V12.0175C0 12.8578 0.525977 13.5159 1.32506 13.7184L3.09517 14.1335L3.18621 14.3764L2.22529 15.9254C1.78023 16.624 1.89149 17.4542 2.48828 18.0617L3.91448 19.4791C4.50115 20.0764 5.34069 20.1979 6.04874 19.7524L7.59632 18.7906L7.86943 18.8919L8.27402 20.6636C8.46621 21.4735 9.12368 22 9.97333 22ZM10.2363 20.1371C10.0644 20.1371 9.97333 20.0663 9.9531 19.9144L9.34621 17.4238C8.70897 17.272 8.09195 17.0087 7.59632 16.6949L5.41149 18.0414C5.28 18.1224 5.15862 18.1123 5.03724 17.9908L3.97517 16.9277C3.85379 16.8164 3.85379 16.6949 3.93471 16.5633L5.28 14.3764C4.99678 13.8905 4.73379 13.283 4.58207 12.6452L2.08368 12.0479C1.93195 12.0276 1.85103 11.9365 1.85103 11.7644V10.266C1.85103 10.0838 1.92184 10.0129 2.08368 9.97239L4.57195 9.38518C4.72368 8.70686 5.01701 8.07915 5.26989 7.62356L3.9246 5.45697C3.84368 5.31523 3.84368 5.19374 3.95494 5.07225L5.02713 4.01933C5.14851 3.90796 5.25977 3.88771 5.41149 3.97883L7.57609 5.30511C8.03126 5.02163 8.70897 4.73815 9.35632 4.57616L9.9531 2.0856C9.97333 1.93373 10.0644 1.85274 10.2363 1.85274H11.7637C11.9356 1.85274 12.0166 1.92361 12.0469 2.0856L12.6538 4.58629C13.3113 4.74827 13.908 5.02163 14.4138 5.30511L16.5784 3.97883C16.7301 3.89784 16.8414 3.90796 16.9628 4.02945L18.0349 5.08237C18.1563 5.19374 18.1563 5.31523 18.0653 5.45697L16.7301 7.62356C16.9729 8.07915 17.2763 8.70686 17.428 9.38518L19.9163 9.97239C20.0782 10.0129 20.1388 10.0838 20.1388 10.266V11.7644C20.1388 11.9365 20.068 12.0276 19.9163 12.0479L17.4179 12.6452C17.2662 13.283 16.9931 13.9006 16.7099 14.3764L18.0552 16.5532C18.1361 16.6949 18.1361 16.8063 18.0147 16.9176L16.9526 17.9908C16.8313 18.1123 16.7099 18.1224 16.5784 18.0414L14.4037 16.6949C13.8979 17.0087 13.3214 17.2619 12.6538 17.4238L12.0469 19.9144C12.0166 20.0663 11.9356 20.1371 11.7637 20.1371H10.2363ZM11.0051 14.8422C13.109 14.8422 14.8386 13.1109 14.8386 10.9949C14.8386 8.89922 13.109 7.16797 11.0051 7.16797C8.89103 7.16797 7.15126 8.89922 7.15126 10.9949C7.15126 13.1109 8.89103 14.8422 11.0051 14.8422ZM11.0051 13.0907C9.85195 13.0907 8.91126 12.1491 8.91126 10.9949C8.91126 9.86102 9.86207 8.91947 11.0051 8.91947C12.1278 8.91947 13.0685 9.86102 13.0685 10.9949C13.0685 12.139 12.1278 13.0907 11.0051 13.0907Z"
          fill="#F4E5E4"/>
</svg>
