<svg width="35" height="35" viewBox="0 0 35 35" fill="#F4E5E4" xmlns="http://www.w3.org/2000/svg">
<path d="M30.4718 0.110331C29.0135 0.555201 28.0728 2.02109 28.3135 3.47239C28.4447 4.31108 28.6416 4.06312 26.002 6.41146L23.6031 8.5483L23.1583 8.39515C22.9176 8.31493 22.5822 8.22012 22.4218 8.19824C22.0135 8.1399 21.2916 8.26388 20.8104 8.48267C20.052 8.83273 19.2791 9.77352 19.1406 10.5174C19.1114 10.6633 19.0604 10.8091 19.0239 10.831C18.9874 10.8529 18.0614 11.0571 16.9676 11.2905L14.9843 11.7062L14.7583 11.4071C14.1312 10.5903 12.9937 10.1309 11.9437 10.2767C10.7916 10.4372 9.75618 11.3196 9.42806 12.4136C9.31139 12.8001 9.26764 13.6898 9.36243 13.9743C9.40618 14.1128 9.19473 14.2806 7.44473 15.5204C6.35827 16.2861 5.4541 16.9133 5.42493 16.9133C5.39577 16.9133 5.16973 16.8112 4.92181 16.6873C4.36764 16.4174 3.50723 16.3226 2.93848 16.4758C1.6041 16.8331 0.670768 17.9417 0.597851 19.2617C0.539518 20.2025 0.831184 20.9682 1.50202 21.6319C2.66139 22.7915 4.57181 22.8061 5.74577 21.6684C6.45306 20.9828 6.75931 20.1441 6.6791 19.1596L6.63535 18.6053L8.59681 17.2196L10.5656 15.8267L10.9885 16.0382C12.0895 16.5852 13.3218 16.4393 14.3208 15.6517C14.6926 15.3526 15.1447 14.6452 15.2906 14.1274L15.4072 13.7117L15.8156 13.6242C16.0416 13.5805 16.9458 13.3908 17.8354 13.2012L19.4468 12.8584L19.8624 13.3179C21.4666 15.0828 24.3614 14.39 25.0468 12.0781C25.1854 11.6114 25.1854 10.9112 25.0468 10.4518C24.9666 10.1746 24.9593 10.0798 25.0322 10.0142C25.076 9.97043 26.177 8.99317 27.4749 7.84088L29.8374 5.74051L30.2093 5.90095C31.9739 6.63754 34.0374 5.44149 34.351 3.50156C34.5333 2.34198 33.9645 1.10217 32.9437 0.460392C32.2583 0.0228138 31.2228 -0.123045 30.4718 0.110331Z" fill="#F4E5E4"/>
<path d="M28.3792 8.38064C28.1385 8.49004 28.0365 8.59214 27.9271 8.83281C27.7885 9.13911 27.7812 9.42354 27.7812 21.6101V34.0811L27.9344 34.402C28.051 34.6426 28.1677 34.7593 28.3938 34.8614C28.6708 34.9854 28.9115 35 31.3906 35C33.9062 35 34.1104 34.9854 34.4021 34.8541C34.6427 34.7447 34.7448 34.6426 34.8542 34.402C34.9927 34.0957 35 33.8112 35 21.6174V9.13911L34.8396 8.81822C34.5333 8.23478 34.5552 8.23478 31.4271 8.23478C28.875 8.23478 28.6708 8.24937 28.3792 8.38064Z" fill="#F4E5E4"/>
<path d="M18.9948 16.6217C18.8782 16.7019 18.7177 16.8697 18.6521 17.0009C18.5282 17.227 18.5209 17.7813 18.5209 25.7452V34.2488L18.6886 34.4968C19.0167 34.9927 19.0459 35 22.0938 35C25.1417 35 25.1709 34.9927 25.499 34.4968L25.6667 34.2488V25.7233C25.6667 16.3081 25.6959 16.9207 25.2073 16.6217C24.9886 16.4831 24.8209 16.4758 22.0938 16.4758C19.3521 16.4758 19.2063 16.4831 18.9948 16.6217Z" fill="#F4E5E4"/>
<path d="M9.76353 18.6856C9.22395 19.043 9.2604 18.5033 9.2604 26.7225C9.2604 33.8623 9.2677 34.0957 9.40624 34.402C9.51561 34.6426 9.6177 34.7447 9.85832 34.8541C10.15 34.9854 10.3542 35 12.8698 35C15.9979 35 16.0417 34.9927 16.326 34.402L16.4792 34.0738L16.4646 26.6423C16.4427 19.6118 16.4354 19.1961 16.3114 19.0065C16.2385 18.8898 16.0781 18.7367 15.9469 18.6637C15.7281 18.5252 15.5604 18.5179 12.8625 18.5179C10.0187 18.5179 10.0114 18.5179 9.76353 18.6856Z" fill="#F4E5E4"/>
<path d="M0.583333 24.7753C0.444792 24.8409 0.255208 25.0086 0.167708 25.1472L0 25.3952V29.822V34.2488L0.167708 34.4968C0.495833 34.9927 0.525 35 3.57292 35C6.62083 35 6.65 34.9927 6.97812 34.4968L7.14583 34.2488V29.822V25.3952L6.97812 25.1472C6.65 24.6513 6.62083 24.644 3.57292 24.644C1.11562 24.644 0.809375 24.6586 0.583333 24.7753Z" fill="#F4E5E4"/>
</svg>
