<svg width="49" height="44" viewBox="0 0 49 44" fill="none" xmlns="http://www.w3.org/2000/svg">
<path d="M7.52348 0.137045C4.98735 0.687044 2.49262 2.88704 1.47817 5.45657C1.0641 6.51361 0.898479 7.32142 0.794963 8.70501C0.587932 11.6097 1.3436 15.0816 3.08266 19.2066C3.85903 21.0714 5.86723 24.7839 6.12602 24.8698C6.20883 24.8956 7.86508 24.5175 9.82152 24.0277C11.778 23.5378 14.283 22.9191 15.3907 22.6527C16.4983 22.3777 17.4506 22.1284 17.492 22.0855C17.5852 22.0167 17.8026 20.255 17.9786 18.0894C18.1235 16.405 18.1235 11.5238 17.9786 10.037C17.668 6.64251 16.1463 3.68626 13.7344 1.76986C11.8711 0.291733 9.58344 -0.30983 7.52348 0.137045Z" fill="#534141"/>
<path d="M38.5782 6.47935C35.1725 7.29576 32.3362 10.4497 31.3321 14.5317C31.0008 15.8637 30.887 17.9778 30.9491 21.4411C31.0112 24.5692 31.3217 28.2129 31.5391 28.3934C31.6012 28.445 33.2161 28.8747 35.1415 29.3559C37.0565 29.8372 39.5512 30.4645 40.6795 30.7567C41.8079 31.0403 42.7913 31.2551 42.8637 31.2293C42.9879 31.195 43.754 29.9317 44.5096 28.5309C46.1659 25.4801 47.6151 21.4153 48.112 18.3903C48.3087 17.2387 48.2776 14.6004 48.0706 13.5606C47.6047 11.2918 46.6317 9.66763 44.8512 8.21529C43.8678 7.39888 43.1846 7.01216 42.077 6.63404C41.5284 6.45357 41.2282 6.4106 40.2344 6.39341C39.4684 6.37622 38.8784 6.40201 38.5782 6.47935Z" fill="#534141"/>
<path d="M16.8398 26.2195C15.784 26.5117 13.341 27.1648 11.4156 27.6891C9.47987 28.2047 7.86503 28.643 7.81327 28.6688C7.658 28.7547 7.73046 29.0641 8.20663 30.3273C9.99745 35.0367 10.0906 35.2172 11.1982 36.1453C12.3473 37.1164 13.8068 37.6406 15.3596 37.6406C16.3947 37.6406 17.0572 37.5117 18.0717 37.1078C19.5105 36.5406 20.5871 35.4922 21.1461 34.1172C21.3014 33.7563 21.3428 33.4039 21.3428 32.6133L21.3324 31.582L20.2144 28.7461C19.1586 26.082 18.9826 25.6867 18.817 25.6953C18.7859 25.7039 17.8957 25.9359 16.8398 26.2195Z" fill="#534141"/>
<path d="M30.0589 32.1748C29.9243 32.2607 29.6965 32.8279 28.2059 36.6951C27.4192 38.7318 27.4399 39.763 28.2784 41.2412C28.7131 41.9888 29.9139 43.0373 30.7835 43.424C32.4397 44.1545 34.5307 44.1716 36.2905 43.467C37.1186 43.1318 38.3919 42.1177 38.868 41.4045C39.2407 40.8373 41.3938 35.2943 41.311 35.1052C41.2696 35.0279 40.4622 34.7701 39.3131 34.4693C38.2573 34.1943 36.1766 33.6443 34.6964 33.249C29.9657 32.0029 30.2141 32.063 30.0589 32.1748Z" fill="#534141"/>
</svg>
